<svg width="20" height="20" viewBox="0 0 20 20" fill="none" xmlns="http://www.w3.org/2000/svg">
<path d="M17.4559 6.92086C17.4475 6.28971 17.3293 5.66484 17.1067 5.07419C16.9137 4.57599 16.6188 4.12352 16.241 3.74572C15.8632 3.36791 15.4108 3.07307 14.9126 2.88003C14.3295 2.66116 13.7135 2.54281 13.0909 2.53003C12.2892 2.49419 12.0351 2.48419 10.0001 2.48419C7.96506 2.48419 7.70423 2.48419 6.90839 2.53003C6.28602 2.5429 5.67035 2.66125 5.08756 2.88003C4.58927 3.07293 4.13674 3.36773 3.75892 3.74555C3.3811 4.12338 3.0863 4.57591 2.89339 5.07419C2.67408 5.6568 2.55599 6.27262 2.54423 6.89503C2.50839 7.69753 2.49756 7.95169 2.49756 9.98669C2.49756 12.0217 2.49756 12.2817 2.54423 13.0784C2.55673 13.7017 2.67423 14.3167 2.89339 14.9009C3.08662 15.399 3.38164 15.8513 3.75959 16.229C4.13754 16.6067 4.59011 16.9013 5.08839 17.0942C5.66959 17.3219 6.28537 17.4487 6.90923 17.4692C7.71173 17.505 7.96589 17.5159 10.0009 17.5159C12.0359 17.5159 12.2967 17.5159 13.0926 17.4692C13.7152 17.4569 14.3312 17.3389 14.9142 17.12C15.4123 16.9268 15.8646 16.6318 16.2424 16.2541C16.6202 15.8763 16.9151 15.4239 17.1084 14.9259C17.3276 14.3425 17.4451 13.7275 17.4576 13.1034C17.4934 12.3017 17.5042 12.0475 17.5042 10.0117C17.5026 7.97669 17.5026 7.71836 17.4559 6.92086ZM9.99506 13.835C7.86673 13.835 6.14256 12.1109 6.14256 9.98253C6.14256 7.85419 7.86673 6.13003 9.99506 6.13003C11.0168 6.13003 11.9967 6.53591 12.7192 7.2584C13.4417 7.98088 13.8476 8.96078 13.8476 9.98253C13.8476 11.0043 13.4417 11.9842 12.7192 12.7067C11.9967 13.4291 11.0168 13.835 9.99506 13.835ZM14.0009 6.88586C13.5034 6.88586 13.1026 6.48419 13.1026 5.98753C13.1026 5.86961 13.1258 5.75285 13.1709 5.64391C13.216 5.53497 13.2822 5.43598 13.3656 5.3526C13.4489 5.26922 13.5479 5.20308 13.6569 5.15796C13.7658 5.11283 13.8826 5.08961 14.0005 5.08961C14.1184 5.08961 14.2352 5.11283 14.3441 5.15796C14.453 5.20308 14.552 5.26922 14.6354 5.3526C14.7188 5.43598 14.7849 5.53497 14.83 5.64391C14.8752 5.75285 14.8984 5.86961 14.8984 5.98753C14.8984 6.48419 14.4967 6.88586 14.0009 6.88586Z" fill="white"/>
<path d="M9.99505 12.485C11.3771 12.485 12.4976 11.3646 12.4976 9.98248C12.4976 8.60039 11.3771 7.47998 9.99505 7.47998C8.61296 7.47998 7.49255 8.60039 7.49255 9.98248C7.49255 11.3646 8.61296 12.485 9.99505 12.485Z" fill="white"/>
</svg>
