<svg width="170" height="45" viewBox="0 0 170 45" fill="none" xmlns="http://www.w3.org/2000/svg">
<g clip-path="url(#clip0_11_3292)">
<path d="M169.825 3.60421C169.641 4.0039 169.641 4.0039 169.825 4.59914H169.453L168.5 5.79992C168.557 6.26136 168.315 6.69364 167.877 7.03672C167.473 6.94409 167.172 7.18253 166.788 7.41068C166.86 7.83266 166.932 8.24607 167.011 8.70751H166.422C166.275 8.99399 166.194 9.31991 165.805 9.25987C165.766 9.20257 165.723 9.14812 165.677 9.09691C165.273 9.34565 164.828 9.25816 164.399 9.25816H47.0011C46.736 8.64233 46.4557 8.03165 45.9943 7.53076C45.8819 7.40896 45.9037 7.16881 45.8131 7.01614C45.5966 6.65076 45.6218 6.17388 45.2727 5.87025C44.9237 5.56663 44.6317 5.27158 44.3045 4.97824C44.2726 4.94908 44.1954 4.97824 44.1367 4.97824C44.0243 4.86503 43.9135 4.7501 43.8011 4.63516V4.29209H40.8008L40.779 3.9147L40.0289 3.28687H169.446L169.553 3.60421H169.825ZM103.208 4.63345V4.29037C102.05 4.30409 100.949 4.2715 99.852 4.31096V4.63516C99.7429 4.78783 99.6338 4.94051 99.508 5.11376C99.5784 6.02292 99.3771 6.97497 99.6842 7.89442L99.9107 8.2375C101.016 8.22549 102.114 8.25637 103.208 8.22034V7.8927C103.286 7.63852 103.342 7.37796 103.376 7.11391C103.398 6.46206 103.394 5.81021 103.376 5.15836C103.343 4.97663 103.286 4.80015 103.208 4.63345ZM133.077 7.8927C133.154 7.63852 133.211 7.37796 133.245 7.11391C133.266 6.46206 133.263 5.81021 133.245 5.15836C133.211 4.97663 133.155 4.80015 133.077 4.63345V4.29037H129.553V4.63345C129.497 4.75181 129.385 4.87189 129.385 4.98854C129.424 5.95774 129.237 6.94066 129.553 7.8927V8.23578H133.077V7.8927ZM73.6749 7.8927V4.29037H70.151V4.63345L69.8154 5.10175C69.8154 5.69013 69.8154 6.28881 69.8154 6.88748C69.8023 7.0695 69.8252 7.25237 69.8829 7.4251C69.9405 7.59784 70.0318 7.75689 70.151 7.8927V8.22378H73.4584L73.6749 7.8927ZM162.778 7.8927C163.028 6.82132 163.028 5.70483 162.778 4.63345V4.29037C161.564 4.3161 160.407 4.25949 159.254 4.32468V4.63859C159.145 4.82428 159.084 5.03485 159.076 5.25099C159.101 6.13271 159.086 7.01613 159.086 7.89785C159.16 8.01106 159.232 8.12256 159.306 8.24093H162.559L162.778 7.8927ZM144.319 4.63345C144.253 4.80643 144.197 4.98345 144.152 5.1635C144.091 5.48085 144.261 5.83594 143.984 6.12413C143.964 6.16214 143.954 6.20456 143.954 6.24764C143.954 6.29072 143.964 6.33313 143.984 6.37115C144.271 6.77769 144.091 7.23914 144.152 7.67142C144.163 7.75204 144.257 7.81894 144.319 7.8927V8.22378H147.627L147.843 7.8927C147.825 7.57364 148.145 7.36093 148.159 7.10705C148.202 6.26994 148.291 5.41052 147.843 4.63345V4.29037H144.319V4.63345ZM84.9176 4.63345L84.582 4.86331C84.582 5.70557 84.5736 6.54097 84.5904 7.37637C84.6195 7.55474 84.6732 7.728 84.7498 7.89099C84.8236 8.00421 84.8958 8.11571 84.9696 8.23407H88.3911L88.6092 7.89099C88.9197 6.94581 88.7166 5.97661 88.777 5.12577L88.4414 4.63174V4.28866H84.9176V4.63345ZM114.451 7.8927L114.681 8.23578C115.894 8.20833 117.104 8.26323 118.31 8.20319V7.88584C118.388 7.63166 118.444 7.3711 118.478 7.10705C118.5 6.4552 118.496 5.80335 118.478 5.1515C118.445 4.96978 118.388 4.7933 118.31 4.62659V4.28351C116.985 4.30066 115.716 4.26292 114.451 4.30581V4.63002C114.395 4.74838 114.283 4.86846 114.291 4.98511C114.33 5.95774 114.144 6.94066 114.451 7.8927ZM55.2167 7.8927V8.22378H58.6918L58.9083 7.8927C58.9637 7.63196 59.0325 7.37808 59.0761 7.10705C59.1197 6.812 58.9956 6.49465 59.2439 6.22705C59.2993 6.1653 59.2775 5.9989 59.2439 5.89255C59.1248 5.46541 58.9889 5.03485 58.8664 4.64203H55.1026L54.8811 4.97653H54.5455C54.5455 5.83423 54.5455 6.62331 54.5455 7.41582C54.5455 7.46042 54.5992 7.50502 54.6277 7.54962H54.8777C54.9365 7.58974 54.9926 7.63387 55.0455 7.68171C55.1093 7.7469 55.1613 7.82237 55.2167 7.8927Z" fill="white"/>
<path d="M25.1803 5.66256L24.3967 4.99013L24.0393 4.94724L23.9889 4.70365C23.9487 4.67292 23.9031 4.65023 23.8547 4.63676C23.7154 4.62818 23.4939 4.69165 23.4503 4.62475C23.1667 4.1959 22.6599 4.35028 22.3008 4.12728C21.9652 3.918 21.5508 3.88198 21.1833 3.80822C20.5978 3.68134 19.9875 3.76242 19.4532 4.03808C19.1344 4.20962 18.7535 4.24907 18.2988 4.38116C18.2853 4.39488 18.188 4.49609 18.0689 4.61617H17.5655C16.9966 5.08619 16.4043 5.55277 15.8388 6.05367C15.6419 6.23806 15.4823 6.4601 15.3689 6.70724C15.2733 6.90794 15.082 6.99543 14.9813 7.13437C14.8806 7.27332 14.9041 7.5272 14.7313 7.71074C14.5585 7.89429 14.5434 8.13788 14.441 8.35059C14.3588 8.52213 14.2564 8.67823 14.1171 8.92353V12.6408L14.4427 12.8346C14.418 13.0406 14.4219 13.2491 14.4544 13.4539C14.5504 13.6449 14.6627 13.8268 14.79 13.9977C14.879 14.1572 14.941 14.3408 15.0652 14.6169C15.1877 14.7422 15.4008 14.9703 15.6223 15.1847C15.7944 15.3612 15.9542 15.5498 16.1005 15.7491C16.3221 16.0049 16.5801 16.2252 16.8657 16.4027C17.099 16.5622 17.2919 16.8933 17.7047 16.8401C17.8927 16.8161 18.0017 17.2501 18.3155 17.1592C18.2459 17.3597 18.1898 17.5649 18.1477 17.7733C18.1335 17.9972 18.1335 18.2218 18.1477 18.4457L18.4833 18.7888V19.4646C18.678 19.7305 19.0287 19.7631 19.0941 20.0976C19.1596 20.4321 19.6143 20.0565 19.663 20.4235C19.6157 20.5189 19.5559 20.6072 19.4851 20.686C18.9616 21.12 18.7971 21.6981 18.824 22.3568C18.824 22.47 18.824 22.5832 18.824 22.6999C19.5422 24.2317 21.1732 24.3021 21.7655 23.3432H22.18V24.4582L22.5156 24.8012C22.5156 25.2695 22.5156 25.7447 22.5156 26.2182C22.5156 26.2902 22.6196 26.3605 22.6834 26.4309V26.6024C22.1045 26.3948 21.4887 26.4069 20.8946 26.2696C20.2721 26.1255 19.673 26.4549 19.1294 26.4549C18.9063 26.5836 18.6699 26.6866 18.4246 26.7619C18.2102 26.7721 18.004 26.8493 17.8339 26.9832C17.6891 27.0769 17.522 27.1285 17.3507 27.1325C17.0453 27.3795 16.8758 27.5184 16.7046 27.6471C16.5335 27.7757 16.1912 27.9147 16.1677 28.0828C16.1173 28.4413 15.7297 28.2543 15.6458 28.5408C15.5804 28.7569 15.3907 28.9353 15.2548 29.1292C15.1189 29.323 14.9729 29.522 14.8437 29.7244C14.7145 29.9268 14.6004 30.1378 14.4443 30.4106V30.8206L14.1255 31.1465C14.1255 31.5959 14.248 32.1037 14.0886 32.4914C13.9477 32.8344 13.8822 33.2015 13.9846 33.452C14.2128 34.0061 14.0534 34.5567 14.139 35.1056L14.4594 35.4333V35.893C14.5794 36.0387 14.6915 36.191 14.7951 36.3493C14.8706 36.4848 14.8873 36.6581 14.9729 36.7833C15.0585 36.9085 15.233 36.9463 15.2951 37.0629C15.6307 37.7062 16.2348 38.0733 16.708 38.5742C17.0235 38.4815 16.9094 38.9515 17.2114 38.9601C17.4463 38.9601 17.6729 39.25 17.9111 39.2638C18.3558 39.2895 18.6427 39.5519 18.9179 39.7784H22.4518C22.7522 39.449 23.0845 39.238 23.5258 39.2792C23.5812 39.3512 23.6852 39.4216 23.6936 39.4936C23.7053 40.1077 23.6936 40.7235 23.6936 41.3377V42.1062C23.8849 42.3172 24.103 42.4338 24.0292 42.71H17.208C16.9513 42.4252 16.6224 42.3772 16.2583 42.3566C15.8888 42.3153 15.5222 42.25 15.1609 42.161L14.8588 41.8626H14.0198L13.7379 41.5349H13.107C12.8049 41.3239 12.5499 41.0203 12.372 41.0512C11.9374 41.1473 11.8568 40.6223 11.5045 40.6549C11.1521 40.6875 11.0548 40.1146 10.647 40.2913C10.3114 39.8213 9.74926 39.7372 9.31633 39.4336C8.8834 39.13 8.47732 38.7697 8.02425 38.4747C7.48634 38.0863 6.99421 37.6356 6.55766 37.1315C5.78745 36.3098 4.89307 35.5997 4.37624 34.5584C3.90472 34.3491 3.79565 33.838 3.57247 33.4503C3.46508 33.265 3.09592 33.3748 3.19995 33.0214C3.27714 32.7555 2.96 32.6783 2.86435 32.4794C2.80086 32.2787 2.71231 32.0873 2.6009 31.9098C2.45491 31.7383 2.2955 31.5822 2.36094 31.3215C1.85754 31.0093 2.00185 30.2922 1.532 29.9491V29.4122L1.18633 29.1772V28.22L0.850728 27.877C0.927916 27.268 0.667824 26.7122 0.347322 26.0792C0.347322 25.7447 0.347322 25.3176 0.347322 24.8904C0.380342 24.6433 0.320369 24.3925 0.179521 24.1888C0.0117188 23.983 0.0117188 23.7394 0.0117188 23.4872C0.0117188 22.4014 0.031855 21.3156 0.0117188 20.228C0.0192731 19.79 0.0864809 19.3553 0.211403 18.9363C0.211403 18.9123 0.265098 18.8968 0.266776 18.8745C0.328862 18.2999 0.315439 17.7046 0.46646 17.1592C0.617482 16.6137 0.936306 16.1299 0.852405 15.5381L1.17626 15.2053V14.3613C1.61926 14.0286 1.58066 13.459 1.8072 13.0113C2.02198 12.5893 2.20992 12.1416 2.43478 11.7385C2.65843 11.2829 2.91827 10.8469 3.2117 10.4348C3.51206 10.0557 3.6312 9.5771 3.89297 9.17912C4.18159 8.7417 4.66822 8.49296 4.91489 7.97834C5.11121 7.5718 5.48373 7.25617 5.77403 6.89765C6.06433 6.53913 6.5241 6.34186 6.78084 5.89757C7.01073 5.50132 7.62824 5.4893 7.81282 4.98155H8.13332C8.61156 4.12385 9.64354 3.99691 10.1654 3.26615C10.2845 3.26615 10.3936 3.30217 10.449 3.26615C11.0933 2.80642 11.8266 2.51309 12.6925 2.06537H13.2144L13.3385 1.72229C13.7681 1.78048 14.2027 1.66339 14.5484 1.39637C14.9343 1.08931 15.4377 1.2437 15.8908 1.20767L16.1945 0.897189C16.9245 0.756526 17.7349 1.11676 18.4179 0.526662C19.8778 0.526662 21.3578 0.526662 22.8395 0.526662C23.0806 0.494551 23.3248 0.555733 23.5241 0.698202C23.7271 0.869742 23.9654 0.869742 24.2104 0.869742C24.6282 0.869742 25.0494 0.869742 25.4505 0.869742L25.7861 1.21282C26.3432 1.23169 26.9775 1.09274 27.4205 1.70171H28.1101L28.4357 2.03621C28.6186 2.18545 28.9391 1.87839 29.0582 2.24206L28.4373 3.09976C28.2839 3.06368 28.1232 3.07733 27.9777 3.13881C27.8322 3.20029 27.709 3.30654 27.6252 3.44284C27.3742 3.47298 27.133 3.55972 26.9188 3.69677C26.7047 3.83382 26.523 4.01778 26.3868 4.23535C26.1989 4.50124 25.9337 4.63847 25.7156 4.89921V5.50475L25.1803 5.66256ZM12.2428 15.5827H11.7914L11.6874 15.2654H10.8584L10.6906 14.9411H7.12819L6.79259 15.2842H6.09957L6.03412 15.5467C5.82773 15.5947 5.56428 15.864 5.21357 16.003C4.92495 16.1162 4.90482 16.6171 4.49203 16.4661C4.42826 16.7492 4.11447 16.8092 4.00204 17.0837C3.88962 17.3581 3.62113 17.6069 3.42816 17.8693C3.23519 18.1318 3.05396 18.3959 2.85092 18.6841V19.1421L2.59083 19.4097C2.26642 20.8891 2.27273 22.4242 2.60929 23.9007L2.88448 24.0911V24.5714L3.61274 25.5492C3.79474 25.8134 3.99022 26.0676 4.19837 26.3108C4.44336 26.5767 4.72527 26.8065 5.03738 27.0982L5.33943 27.1187L5.41158 27.4018C5.62133 27.4773 5.86297 27.4532 6.05426 27.6745C6.13636 27.7593 6.23411 27.8267 6.34183 27.8726C6.44955 27.9185 6.56512 27.9422 6.68184 27.9421C6.99227 27.9318 7.12651 28.124 7.30774 28.2989H10.6034C10.8786 28.1154 11.1068 27.8684 11.3702 27.8083C11.8518 27.6985 12.2092 27.3932 12.6338 27.1908C13.1372 26.9438 13.3469 26.3331 13.9057 26.1959C13.9426 25.7344 14.6323 25.6315 14.4527 25.0911L14.78 24.9796C14.78 24.8956 14.7598 24.8287 14.78 24.7841C14.9276 24.501 15.0837 24.2232 15.2834 23.8543V23.2402L15.619 22.8972C15.619 22.3602 15.5418 21.8027 15.6374 21.2795C15.77 20.5676 15.3018 20.0204 15.2716 19.3617C15.2716 19.1902 15.1256 19.0186 15.0317 18.8694C14.827 18.5601 14.6442 18.2362 14.4846 17.9002C14.3437 17.5571 14.0517 17.3667 13.9023 17.0425C13.753 16.7183 13.1321 16.3358 12.716 16.1059C12.565 16.0373 12.4727 15.852 12.2428 15.5827ZM11.0581 34.133C11.1621 33.7419 11.7293 33.5566 11.5917 32.9768C11.58 32.9305 11.6102 32.8722 11.6202 32.8207L12.0918 32.337V31.6045L12.4274 31.3215V30.7845L12.6959 30.5101C12.7747 30.167 12.8418 29.8582 12.9157 29.5289H12.1471L11.684 30.0006L11.2981 30.0469L11.189 30.3557H10.8903L9.81302 31.2048L9.23075 31.2494V31.4879L8.89514 31.6474V32.361C8.99079 32.3953 9.11664 32.4022 9.17873 32.4691C9.41062 32.7029 9.62647 32.9528 9.82477 33.217C9.95901 33.4142 10.2527 33.5961 10.4003 33.8105C10.4642 33.9269 10.5616 34.0204 10.6793 34.0781C10.7971 34.1358 10.9293 34.155 11.0581 34.133ZM10.6957 9.38154C10.5413 9.66458 10.4943 9.97164 10.1453 9.96992C10.1 10.265 9.75932 10.3233 9.67206 10.6081C9.59823 10.8482 9.17873 10.807 9.16866 11.1741H8.75922V11.6767L9.33646 12.3457C9.79792 12.4504 10.4976 12.9101 10.694 13.2412H11.2276L11.3048 13.5414L11.835 13.5705L12.1706 14.0509H12.7495V13.1005L12.4408 12.7866V12.2394C11.9374 11.9941 12.1958 11.2222 11.6018 11.0661V10.5051L11.2662 10.2221V9.61312L10.6957 9.38154Z" fill="white"/>
<path d="M126.615 16.6411L126.363 16.8984C126.363 20.8816 126.363 24.875 126.363 28.8788C126.363 29.1498 126.462 29.462 126.106 29.661H123.71V16.9225L123.425 16.6514H118.533L118.198 17.1849L117.723 16.9448L116.636 18.2588V18.9329L116.34 19.2674C116.387 19.8575 116.454 20.3189 116.456 20.7821C116.466 23.6674 116.456 26.551 116.456 29.4208L116.206 29.6782H113.862L113.612 29.4174C113.624 29.3574 113.612 29.2459 113.659 29.2098C113.894 28.9971 113.773 28.7244 113.773 28.4859C113.783 25.3142 113.773 22.139 113.773 18.9706C113.773 18.5058 113.687 18.0186 114.058 17.6343C114.001 16.9653 114.562 16.5948 114.795 16.0613C114.912 15.7937 115.241 15.6308 115.412 15.3752C115.583 15.1196 115.979 15.1573 116.005 14.7851C116.558 14.7233 116.951 14.1847 117.545 14.2379C117.6 14.2379 117.679 14.2636 117.713 14.2379C118.241 13.7232 118.898 13.9068 119.507 13.9051C123.782 13.8931 128.065 13.9051 132.31 13.9051C132.688 14.303 133.149 14.4043 133.683 14.4369C133.706 14.5038 133.738 14.5998 133.773 14.7045C134.971 14.9549 135.419 16.1111 136.243 16.9911V17.5743L136.569 17.9088C136.583 17.961 136.592 18.0144 136.596 18.0683C136.596 21.3528 136.596 24.6389 136.596 27.9267C136.596 28.2801 136.544 28.63 136.74 28.9817C136.771 29.0426 136.79 29.1095 136.795 29.1782C136.799 29.2468 136.79 29.3157 136.766 29.3804C136.743 29.445 136.707 29.504 136.661 29.5535C136.614 29.6031 136.557 29.642 136.495 29.6679H134.114V18.9981L133.748 18.6035V18.1284C133.412 17.7561 133.12 17.3084 132.629 16.9945H132.152L131.88 16.6411H126.615Z" fill="white"/>
<path d="M142.865 29.6491L142.42 29.2031C141.338 29.1345 140.828 28.2751 140.292 27.5134C139.977 27.0582 139.749 26.5459 139.621 26.0039C139.538 25.7833 139.435 25.5713 139.312 25.3709V22.556C139.403 22.2201 139.511 21.8892 139.634 21.5645C139.774 21.2505 139.982 20.9675 140.126 20.657C140.257 20.3774 140.497 20.199 140.673 19.9623C140.892 19.7025 141.127 19.4573 141.376 19.2281L141.764 19.1955L141.831 18.9365C141.851 18.9159 141.875 18.8747 141.89 18.8781C142.348 18.9914 142.61 18.5762 142.979 18.4562C143.183 18.3921 143.396 18.3603 143.61 18.3618C146.909 18.3549 150.209 18.3549 153.51 18.3618H154.032V17.71C153.574 17.336 153.097 16.938 152.448 16.7528C152.19 16.6808 151.924 16.6456 151.657 16.6481C148.666 16.6378 145.674 16.6481 142.682 16.6481H141.834V13.9035H142.547C145.68 13.9035 148.812 13.9258 151.944 13.8881C152.693 13.8795 153.357 14.1059 154.044 14.3152C154.193 14.3598 154.341 14.4164 154.532 14.4867C154.532 14.5125 154.559 14.5897 154.594 14.7303L154.99 14.7852C154.963 14.7766 154.99 14.7852 155.01 14.7955C155.653 15.5297 156.549 16.0683 156.747 17.1456C157.178 17.7271 157.082 18.4047 157.082 19.0617C157.082 22.5783 157.082 26.0948 157.082 29.6491H154.582V21.3758L154.302 21.103H143.786L142.672 21.8887C142.658 22.0267 142.621 22.1613 142.563 22.2866C142.292 22.7258 141.975 23.5989 141.97 24.0106C141.958 24.8374 142.385 25.6866 143.078 26.2749C143.199 26.3779 143.15 26.6317 143.442 26.618C143.591 26.6077 143.754 26.7998 144.009 26.9611H152.189V29.6543L142.865 29.6491Z" fill="white"/>
<path d="M96.8316 27.028V26.4843L96.5044 26.2647V17.4167C96.6034 17.3086 96.7997 17.1988 96.8165 17.0633C96.8853 16.5658 97.2008 16.2416 97.4877 15.8814C97.8042 15.449 98.1833 15.0684 98.612 14.7527C99.1154 14.4096 99.7346 14.3495 100.265 14.0665C100.559 13.9327 100.88 13.8738 101.201 13.895C104.585 13.9018 107.968 13.9018 111.35 13.895L111.623 14.1763L111.432 14.5588C111.491 15.0992 111.321 15.7253 111.6 16.4183L111.108 16.6396H101.794C100.954 16.6396 100.349 16.9501 99.7799 17.6534L99.008 18.6174V20.4135H111.392V23.2936C111.073 23.2292 110.751 23.1863 110.427 23.165C106.987 23.1547 103.547 23.165 100.109 23.1512C99.7068 23.1441 99.3162 23.2881 99.0114 23.5561C99.0567 23.9781 98.9543 24.4258 99.1003 24.9027C99.2463 25.3795 99.6691 25.678 99.8487 26.1309C100.045 26.6249 100.673 26.5186 100.934 26.9303H111.345L111.607 27.2236C111.368 27.5529 111.427 27.9698 111.424 28.3781C111.42 28.7863 111.424 29.222 111.424 29.6594H99.951C99.5047 29.1448 98.7127 29.1448 98.2328 28.6199C97.7528 28.095 97.3182 27.5821 96.8316 27.028Z" fill="white"/>
<path d="M44.1419 4.97667C44.1972 4.97667 44.2744 4.95266 44.3097 4.97667C44.6453 5.27 44.9473 5.58049 45.2779 5.86868C45.6084 6.15687 45.6017 6.64918 45.8182 7.01456C45.9088 7.17066 45.887 7.41082 45.9994 7.52918C46.4592 8.03008 46.7394 8.64076 47.0062 9.25659H164.392C164.822 9.25659 165.266 9.34407 165.671 9.09534C165.717 9.14655 165.759 9.201 165.798 9.25831V9.57565C165.588 9.58423 165.34 9.67 165.169 9.58766C164.665 9.34579 164.149 9.43499 163.639 9.43499C124.926 9.43499 86.212 9.43499 47.4979 9.43499C46.9374 9.44357 46.8955 9.47445 46.8267 9.94961C46.773 10.1881 46.8921 10.4265 46.7243 10.6821C46.6802 10.7464 46.6498 10.8196 46.6351 10.8967C46.6205 10.9739 46.6219 11.0534 46.6393 11.1299C46.6567 11.2065 46.6898 11.2784 46.7362 11.3411C46.7827 11.4037 46.8415 11.4556 46.9089 11.4935H47.6372C48.3772 11.888 49.0635 12.2259 49.337 12.9996C49.2028 13.3272 49.0752 13.6446 48.8873 14.1026C48.7195 14.2741 48.4896 14.6172 48.1607 14.8128C47.8318 15.0083 47.7764 15.372 47.4341 15.5624L47.7026 15.9346H48.3453L48.9997 16.5453C49.0937 17.0874 49.0937 17.0874 49.5921 17.156L50.4982 18.0823V18.88C50.3639 19.1236 50.2364 19.3517 50.1089 19.5781L50.1928 19.6382L49.5753 20.218H48.8537V19.7926L49.1608 19.6673V18.2864C48.8621 17.7873 48.1171 17.7032 47.961 17.0325C47.8083 16.9913 47.659 16.945 47.5063 16.9124C47.3251 16.8729 47.0851 16.7546 46.9676 16.8301C46.5246 17.1148 46.0514 16.9004 45.5094 17.0359L45.303 17.3258H44.7275L44.2711 17.8164C43.7526 17.9313 43.3817 17.6963 43.0579 17.331H42.2105L41.9218 17.0085H39.8411L39.5256 17.3241C39.2555 17.3361 38.9752 17.3087 38.7302 17.59C38.641 17.6898 38.5291 17.7657 38.4045 17.8112C38.2799 17.8566 38.1463 17.8702 38.0154 17.8507C37.8086 17.8284 37.6002 17.8255 37.3929 17.8421L36.7955 17.4819V16.6688C37.3576 16.6053 37.6748 17.1834 38.2117 17.168L38.2889 16.9313L39.3696 16.3377C39.8644 16.2393 40.3649 16.174 40.868 16.1422C41.3858 16.169 41.9014 16.2292 42.4118 16.3223L43.1032 16.8026H44.4355L44.8466 16.288C45.35 16.4372 45.5531 15.7271 46.043 16.0067L47.9996 13.5622V13.1625C47.6774 12.5759 47.023 12.4627 46.523 12.0081H45.5262C45.4585 11.7813 45.4434 11.5416 45.4821 11.3078C45.5208 11.0741 45.6124 10.8528 45.7494 10.6615C46.2075 10.0354 45.8903 9.52419 45.637 9.01986C45.444 8.6339 45.1151 8.31826 44.8147 7.93058C44.7107 7.57378 45.0262 7.07289 44.5714 6.70579H42.6266C42.6056 6.78277 42.5616 6.85113 42.5007 6.90135C42.1651 7.09347 41.754 7.09348 41.4268 7.36622C41.1483 7.60123 41.1114 7.55491 40.2757 7.52232C40.3469 7.30245 40.403 7.07776 40.4435 6.84989C40.4578 6.6214 40.4578 6.39222 40.4435 6.16373C40.1714 5.53195 39.7186 4.99913 39.1447 4.63531H37.6446L37.5607 4.93722H37.2251L36.5337 5.58049C36.3441 5.19282 36.4565 4.8566 36.4095 4.55126L36.7351 4.22018V3.69699C36.5505 3.30931 36.0018 3.15836 35.8961 2.64374C35.4615 2.4619 35.3222 1.95758 34.9547 1.71914C34.5872 1.4807 34.1778 1.28686 33.6995 1.03298H32.6474C32.5199 1.14962 32.384 1.37606 32.2749 1.35547C31.8839 1.31087 31.6993 1.59391 31.5467 1.82892C31.394 2.06393 31.1389 2.2166 30.9593 2.42588C30.7798 2.63516 30.8285 2.92849 30.6053 3.13777C30.4996 3.23726 30.5415 3.50315 30.508 3.76046C30.0314 3.64724 29.7193 4.03664 29.3333 4.23905C28.9638 4.41427 28.6413 4.67857 28.3937 5.00926C28.1134 5.39694 27.7342 5.70744 27.3868 6.06938C27.3097 6.55999 27.219 7.07117 27.157 7.52232C27.3046 7.77448 27.4187 7.9546 27.5211 8.13986C27.6234 8.32513 27.6889 8.46579 27.8047 8.70766H26.6938L26.0226 7.5755V6.41761L25.687 6.30439V6.00591H25.9471L26.0931 5.6817L26.3465 5.61995L26.3733 5.02642C26.7744 5.00412 26.7089 4.4003 27.1385 4.43632C27.3063 4.02291 27.8198 4.17901 28.0732 3.84794C28.2913 3.56662 28.6856 3.58892 28.9625 3.60093C29.08 3.48085 29.1907 3.42081 29.1907 3.36077C29.1907 3.01769 29.236 2.70206 29.5414 2.48077C29.58 2.45161 29.5414 2.30923 29.5414 2.23204L30.0448 1.58191C30.0386 1.49855 30.0386 1.41481 30.0448 1.33145C30.0448 1.28514 30.1153 1.20452 30.1304 1.20966C30.466 1.33317 30.2831 0.791105 30.565 0.866583C30.8016 0.923191 30.9124 0.741361 31.0483 0.605844C31.1949 0.49665 31.3524 0.403509 31.5181 0.327951C32.1172 -0.0648748 32.7632 0.0157461 33.4059 0.00888454C33.8237 0.00888454 34.2449 0.00888454 34.7181 0.00888454C35.1728 0.439449 35.636 0.916331 36.1394 1.34518C36.6428 1.77403 36.673 2.47219 37.168 2.9182H170C169.934 3.17551 169.881 3.39336 169.832 3.60435H169.56L169.453 3.28701H40.029L40.7858 3.90969L40.8076 4.28708H43.8062V4.63016H40.9738V5.75375L41.3714 6.17745H42.093L42.2977 5.92014L43.8885 5.65597L44.1419 4.97667ZM38.2285 3.76046L38.4718 3.37964L38.1715 3.08459L37.4566 3.12062V3.76046H38.2285Z" fill="white"/>
<path d="M55.0806 18.4185C54.9934 19.1956 54.8239 19.9298 54.8709 20.6914C54.9129 21.4341 54.9129 22.1787 54.8709 22.9214C54.8323 23.6796 54.9732 24.4138 55.0907 25.1789L55.3726 25.4688V25.8119L56.1999 26.5907H56.4734L56.7771 26.92H68.3672L68.634 27.1911V29.5926C68.619 29.6146 68.6015 29.6348 68.582 29.6527C68.562 29.6699 68.5375 29.6807 68.5115 29.6835H55.8576C53.3892 28.2529 53.5905 28.3387 52.3639 26.1515C52.3639 23.3915 52.3639 20.5954 52.3522 17.7993C52.3522 17.4956 52.52 17.2846 52.5787 17.0325C52.6366 16.8392 52.7044 16.6491 52.7817 16.463L54.25 14.7476C54.7249 14.9088 54.8927 14.3668 55.3172 14.3685C55.6528 14.3685 55.9884 14.0974 56.3559 13.9259H68.6172V16.4115L68.3873 16.6414H68.0517C64.6437 16.6414 61.2339 16.6414 57.8242 16.6414C56.7268 16.6414 55.9314 17.1183 55.3844 18.0772C55.2954 18.2018 55.1936 18.3162 55.0806 18.4185Z" fill="white"/>
<path d="M78.5413 18.6135L78.2157 18.9566V29.6538H75.744C75.7591 29.6693 75.7356 29.6538 75.7205 29.6315C75.7036 29.6111 75.6931 29.586 75.6903 29.5595C75.6903 25.6432 75.6903 21.7252 75.6903 17.785C76.0377 17.4591 76.0427 16.9393 76.3347 16.5293C76.7525 15.9444 76.969 15.5138 77.5177 15.1055C77.8113 15.1844 77.6184 14.5686 78.0446 14.7367C78.1872 14.7916 78.4389 14.5154 78.6537 14.4245C78.8685 14.3336 79.1051 14.301 79.3249 14.217C79.5447 14.1329 79.741 13.994 79.9625 13.9253C80.1259 13.8957 80.2925 13.8893 80.4576 13.9065H88.3442C88.6116 13.8952 88.8778 13.9487 89.1212 14.0626C89.4182 14.2118 89.7756 14.2341 90.1062 14.3182C90.4367 14.4022 90.6096 14.8328 91.0156 14.7676C91.0288 14.7677 91.0417 14.7712 91.0532 14.7778C91.0646 14.7844 91.0742 14.7939 91.0811 14.8053C91.1046 14.8517 91.0995 14.922 91.1314 14.9529C91.5207 15.3302 91.9285 15.6853 92.306 16.0782C92.598 16.3886 92.6635 16.8398 92.8967 17.2035C93.0981 17.5174 93.1753 17.9497 93.2776 18.3168C93.3974 18.7363 93.4634 19.1699 93.4739 19.6067C93.4958 22.89 93.4857 26.1733 93.4857 29.5303C93.3193 29.603 93.1445 29.6537 92.9655 29.6813C92.2691 29.6984 91.5711 29.6813 90.8009 29.6813V28.9299C90.8009 26.1853 90.7841 23.4406 90.816 20.696C90.816 20.1574 90.5978 19.6668 90.6331 19.1384C90.3193 18.9017 90.5408 18.5535 90.4434 18.255C90.0911 18.0046 90.0659 17.3973 89.5205 17.3081C89.2403 16.8947 88.6815 16.9908 88.3661 16.646H80.6371L80.6589 16.7214L79.5296 17.0937L78.5413 18.1023V18.6135Z" fill="white"/>
<path d="M40.4501 34.9956L40.7857 35.2221C40.8059 36.2427 40.8327 37.2514 40.1145 38.0833L39.8611 37.9272C39.7521 38.7266 39.7605 43.7596 39.8729 44.4303H40.1229L40.3864 45.0015C39.7152 44.7048 39.1211 44.7785 38.5405 44.7751C37.96 44.7717 37.381 44.7751 36.6763 44.7751L36.9364 44.432C37.3038 44.2605 37.0924 43.9363 37.0941 43.6978C37.1075 36.7573 37.1109 29.8163 37.1042 22.8746V22.1593H40.628C40.628 23.3807 40.628 24.5763 40.628 25.7702C40.6297 25.7972 40.6384 25.8233 40.6532 25.8457C40.6699 25.8683 40.6891 25.889 40.7102 25.9074H40.9619C41.3445 27.0327 41.066 28.1031 40.7253 29.1667H40.4501C40.4132 28.9488 40.524 28.7035 40.3511 28.4428C40.2639 28.9334 40.1598 29.352 40.1229 29.7757C40.086 30.1994 40.1145 30.6231 40.1145 31.0485V32.4071C40.1145 32.8308 40.1145 33.2648 40.1145 33.6799C40.0971 34.1197 40.105 34.5602 40.138 34.999L40.4501 34.9956Z" fill="white"/>
<path d="M42.6318 38.598C42.622 38.4373 42.6248 38.2761 42.6402 38.116C42.652 38.0405 42.7443 37.9804 42.7996 37.9118C42.855 37.9804 42.949 38.0405 42.9674 38.116C42.9792 38.2764 42.9792 38.4375 42.9674 38.598L43.0228 38.7404L43.1352 38.598C43.1209 38.3123 43.1209 38.026 43.1352 37.7403C43.1638 37.4487 43.2812 37.1622 43.2896 36.8706C43.3618 34.3575 43.1436 31.8393 43.4574 29.3228C43.4406 29.1513 43.4255 28.9918 43.4088 28.8254L43.2896 28.8391V29.3228C43.2762 29.5801 43.0815 29.4686 42.954 29.4944V28.6881L43.2896 28.6007V27.7858H43.6487V22.149H46.9947V25.3894H46.7497C46.6547 25.5411 46.5722 25.7007 46.503 25.8663C46.4862 25.9109 46.6037 26.0053 46.6591 26.0756C46.7698 27.0036 46.4762 27.9042 46.4913 28.8202C46.4913 29.3897 46.4913 29.9593 46.4913 30.5356H46.1557V35.5103H45.9879L45.8201 35.6818C45.8201 36.6544 45.8201 37.6254 45.8201 38.598C45.8123 38.7865 45.7813 38.9732 45.7278 39.1538C45.5113 39.9943 45.2244 40.8246 45.3083 41.7269C45.3444 42.326 45.3477 42.9268 45.3183 43.5263C45.3183 43.7716 45.3016 44.0169 45.2915 44.2588H43.2175L42.798 43.8282C42.799 43.1646 42.8467 42.5019 42.9406 41.8452C43.0883 40.9738 42.8449 40.0595 43.1587 39.1829L42.8349 39.0629C42.7141 38.9342 42.954 38.6374 42.6318 38.598Z" fill="white"/>
<path d="M96.3937 31.9048H97.0816L97.3988 31.5823H102.706L103.394 31.982L103.446 31.8996L104.212 32.7127V33.0249L104.529 33.3491V35.4436L104.218 35.761V36.9909L104.519 37.2362V39.5572C104.401 39.6639 104.299 39.7875 104.217 39.9243C103.938 40.5658 103.218 41.1576 102.559 41.1645C100.83 41.1851 99.102 41.1645 97.3568 41.1645V39.6669H102.205L102.876 39.1523C103.134 38.6909 103.003 38.0853 102.829 37.4712L102.235 37.0578H97.377V35.7044H101.896L102.837 35.0937C103.049 34.1108 103.049 34.1108 102.693 33.332C102.603 33.3122 102.512 33.2973 102.421 33.2874C102.312 33.2771 102.203 33.2874 102.117 33.2874L101.782 32.9443H101.554C100.798 32.9443 100.043 32.9443 99.2882 32.9443C98.8335 32.9443 98.3821 32.8911 97.966 33.2119C97.7982 33.3423 97.4928 33.2839 97.1806 33.32L96.3282 34.4127V40.9106C95.9473 41.4064 95.4607 41.0375 95.0999 41.2074L94.818 40.9192V40.3188C94.818 38.5468 94.8281 36.7748 94.818 35.0011C94.8031 34.5366 94.8852 34.0743 95.0588 33.6448C95.2324 33.2153 95.4936 32.8286 95.8248 32.5103C96.0262 32.3096 96.2124 32.0969 96.3937 31.9048Z" fill="white"/>
<path d="M90.7907 31.5823H92.4688V32.0969C92.4688 33.4967 92.4251 34.8981 92.4855 36.2962C92.5224 37.1745 92.3009 38.0116 92.2926 38.883C92.2926 39.3221 91.9335 39.8453 91.5257 40.1696C91.2707 40.3703 91.0223 40.5778 90.7639 40.7734C90.4353 40.9939 90.0605 41.132 89.6698 41.1765C87.965 41.1765 86.2601 41.1765 84.5535 41.1765C84.1533 41.1891 83.7626 41.0505 83.4561 40.7871C83.2548 40.6156 82.8453 40.7339 82.8201 40.3171C82.2597 40.2553 82.2815 39.6841 82.0969 39.3479C81.9123 39.0117 81.909 38.4902 81.9056 38.0648C81.8888 35.9239 81.8972 33.7763 81.8972 31.6046H83.389V38.7012L84.4931 39.6241H89.695L90.044 39.281H90.3545L90.7891 38.6257L90.7907 31.5823Z" fill="white"/>
<path d="M69.2952 39.6275V41.1456H61.6988L60.6551 40.5504C60.4558 40.3528 60.2665 40.145 60.0879 39.9277C59.9101 39.6944 59.7725 39.4302 59.5845 39.118C59.5845 37.5176 59.5845 35.833 59.5845 34.1434C59.5668 33.7596 59.6539 33.3783 59.8362 33.0423C60.0185 32.7063 60.2887 32.4289 60.6165 32.241C60.7105 32.1827 60.7558 32.0455 60.8514 31.8979H61.3548L61.672 31.5754H69.4563C69.3959 32.018 69.3405 32.4417 69.2784 32.8963H62.7073L62.3717 33.2514L61.8247 33.284C61.8616 33.6047 61.4438 33.555 61.3985 33.8672C61.3616 34.1091 61.1216 34.3201 60.9186 34.6254C60.9186 35.4934 60.8951 36.4626 60.9186 37.4284C60.9454 38.2329 61.2105 38.9379 61.9254 39.3822C62.0081 39.4495 62.0815 39.528 62.1435 39.6155L69.2952 39.6275Z" fill="white"/>
<path d="M18.8039 17.1559V16.5504C19.1227 16.2759 19.2654 15.7544 19.6597 15.6395C20.0842 15.516 20.3091 15.058 20.7655 15.082C20.8108 14.9104 20.8528 14.7526 20.888 14.5965C20.9232 14.4404 21.0223 14.2534 20.9736 14.1282C20.638 13.2482 20.9266 12.3373 20.8058 11.4917C20.9954 11.2103 21.1112 10.8518 21.3377 10.7506C21.6112 10.6288 21.6347 10.2085 22.066 10.26C22.2808 10.2857 22.5174 9.8809 22.7808 9.80028C23.0443 9.71965 23.3899 9.77969 23.7876 9.77969L23.9856 9.4469H25.9607C26.0781 9.82429 26.7225 9.70593 26.7174 10.2754H27.3887L28.6874 9.45548H29.4375L29.7916 9.09353C30.2631 9.09353 30.7631 9.10725 31.2632 9.09353C31.4776 9.07521 31.6913 9.13607 31.8656 9.26507C31.9478 9.33025 32.0452 9.42632 32.1324 9.42289C32.8472 9.39544 33.255 9.8929 33.693 10.3423C33.9447 10.5996 34.2081 10.8244 34.641 10.8106C35.0438 10.4916 35.3425 9.91006 36.007 9.95294C36.1748 10.2651 36.361 10.5688 36.1748 11.0062C35.4935 11.2584 34.7686 11.5363 34.2618 12.2704C33.7836 11.7335 33.3758 11.2052 32.8305 10.8278C32.2321 10.4423 31.553 10.2072 30.8487 10.1416C30.1564 10.0698 29.4582 10.1957 28.8317 10.5053C28.2293 10.7952 27.5279 11.0319 27.142 11.6649H26.1117L25.8231 11.1726L25.2509 11.1417L24.9421 10.8244H23.5846L22.5023 11.6975C22.4173 12.175 22.3612 12.6573 22.3345 13.1419C22.3345 13.5741 22.4502 13.9996 22.5308 14.5416L23.0124 15.0357L22.2136 15.7476C21.9166 15.6652 21.6297 16.0169 21.3159 16.2913C20.789 16.7528 20.5558 17.3394 20.6296 17.8798L21.0575 19.0806L20.9786 19.1114L21.3142 19.5094C21.3042 19.6947 20.3796 20.0446 19.9718 20.0772L19.5506 19.7341C19.4634 19.3911 19.4516 19.1972 19.3627 19.048C19.0288 18.451 18.7351 17.8626 18.8039 17.1559Z" fill="white"/>
<path d="M72.9752 29.661H70.8525V13.9137H72.9752V29.661Z" fill="white"/>
<path d="M80.2025 39.6274V41.1456H73.1549C72.2303 40.8025 71.6983 40.0717 71.1647 39.3049C71.1647 37.1761 71.1647 35.0044 71.1647 32.831C71.1647 32.4296 71.1027 32.0282 71.0691 31.5959H72.6649C72.6968 32.7521 72.6649 33.9426 72.6783 35.1314C72.6917 36.3201 72.6783 37.4746 72.6783 38.6102L73.6751 39.6274H80.2025Z" fill="white"/>
<path d="M29.3753 26.9332C29.0296 25.1972 29.3031 23.4406 29.1857 21.6566H33.5485C33.6274 21.7591 33.6887 21.8745 33.7297 21.998C33.7457 22.1972 33.7457 22.3974 33.7297 22.5967V44.7321H30.0381V36.7109C30.0381 36.4245 30.0247 36.1363 30.018 35.8532H29.7025V35.1671H30.0381V35.4656L30.3737 35.5805V44.0099L30.7949 44.2312H32.8286L33.035 44.022C33.035 36.7407 33.035 29.4559 33.035 22.1678H29.679C29.8468 23.5899 29.4357 24.9502 29.5381 26.3328C29.5532 26.5318 29.5381 26.7342 29.5381 26.9332H29.3753Z" fill="white"/>
<path d="M42.6314 38.5982C42.9536 38.6377 42.7103 38.9413 42.8345 39.0631L43.1583 39.1832C42.8446 40.0597 43.0879 40.974 42.9402 41.8455C42.8463 42.5021 42.7986 43.1648 42.7976 43.8285L43.2171 44.259H45.2878C45.2978 44.0172 45.3129 43.7719 45.3146 43.5266C45.344 42.9264 45.3407 42.3251 45.3045 41.7254C45.2139 40.8214 45.5076 39.9911 45.724 39.1523C45.7775 38.9717 45.8085 38.785 45.8163 38.5965C45.8163 37.6256 45.8163 36.6547 45.8163 35.6803L45.9841 35.5088H46.1519C46.167 35.7661 46.36 35.6546 46.4875 35.6803C46.5007 36.006 46.4469 36.3309 46.3298 36.6341C46.2368 36.9417 46.1804 37.2596 46.162 37.581C46.1335 37.8898 46.162 38.2037 46.162 38.5159V39.4525C46.1763 39.7073 46.1763 39.9627 46.162 40.2176C46.1215 40.4247 46.0654 40.6282 45.9942 40.8265L45.7039 40.655V41.3411H45.9942C45.8857 41.5275 45.8245 41.7386 45.8163 41.9553C45.8432 42.813 45.8264 43.6706 45.8264 44.5146L45.5982 44.7479H42.2958C42.2958 44.1887 42.2086 43.6329 42.3126 43.1166C42.5945 41.7151 42.3915 40.3068 42.4653 38.9036C42.472 38.7818 42.4016 38.6017 42.6314 38.5982Z" fill="white"/>
<path d="M40.9537 25.9043H40.7003C40.6791 25.8859 40.66 25.8652 40.6432 25.8425C40.6298 25.8214 40.6218 25.7973 40.6197 25.7722C40.6197 24.5714 40.6197 23.3826 40.6197 22.1613H37.0959V22.8766C37.0959 29.8194 37.0925 36.7604 37.0858 43.6998C37.0858 43.9382 37.2956 44.2642 36.9281 44.434C36.9281 37.2728 36.9281 30.1104 36.9281 22.9469C36.9063 22.5717 36.8659 22.1978 36.8073 21.8268C36.772 21.8851 36.7821 21.8594 36.7989 21.8405C36.8157 21.8216 36.8425 21.7959 36.8643 21.7959H40.9604C40.91 21.9674 40.8714 22.0978 40.8245 22.2573C40.8245 22.2573 40.8932 22.3002 40.8949 22.3414C40.9184 23.5233 40.9352 24.7138 40.9537 25.9043Z" fill="white"/>
<path d="M27.5294 36.8826C27.6406 37.0677 27.7019 37.2796 27.7073 37.4967C27.6771 38.1211 27.6972 38.7472 27.6972 39.3733C27.6972 39.972 27.6737 40.5741 27.6972 41.1677C27.7207 41.7612 27.657 42.3084 27.8248 42.9002C27.9825 43.4508 27.8583 44.0855 27.8583 44.7614C26.7626 44.7906 25.6635 44.7614 24.5761 44.7768C24.369 44.1125 24.287 43.414 24.3345 42.7184H24.8379V44.0409C25.6769 44.4492 26.5159 44.197 27.3801 44.2536C27.2425 43.1592 27.5026 42.1231 27.2123 41.0887C27.0831 40.6427 27.224 40.1213 27.1804 39.6409C27.1368 39.1606 27.276 38.6717 27.0579 38.1554C26.8901 37.7454 27.0227 37.1999 27.0227 36.7145H27.1905V36.886L27.2475 37.2119L27.3583 37.2017V36.886L27.5294 36.8826Z" fill="white"/>
<path d="M46.9944 25.3898V22.1494H43.6618V27.7913H43.3027V21.6639C43.7122 21.7085 44.0746 21.7772 44.4388 21.7823C45.4942 21.7977 46.5514 21.7823 47.6656 21.7823V22.1254H47.1622C47.1622 22.4685 47.1622 22.7429 47.1706 23.0208C47.1706 23.0689 47.2746 23.11 47.33 23.1546V23.6692C47.2773 23.7088 47.2344 23.7604 47.2048 23.82C47.1753 23.8796 47.1599 23.9455 47.1599 24.0123C47.1599 24.0791 47.1753 24.145 47.2048 24.2046C47.2344 24.2642 47.2773 24.3159 47.33 24.3554V25.1239C47.3443 25.3787 47.3443 25.6342 47.33 25.889C47.2888 26.1246 47.2328 26.3572 47.1622 26.5854C47.1068 26.5168 47.0061 26.4482 47.0028 26.3761C46.9843 26.0519 46.9944 25.7209 46.9944 25.3898Z" fill="white"/>
<path d="M42.9672 29.5066C43.0948 29.4809 43.2894 29.5924 43.3028 29.3351H43.4706C43.1501 31.843 43.3683 34.3612 43.3028 36.8828C43.3028 37.1744 43.177 37.4609 43.1485 37.7525C43.1341 38.0382 43.1341 38.3245 43.1485 38.6102H42.9807C42.9924 38.4498 42.9924 38.2887 42.9807 38.1282C42.9689 38.0527 42.8749 37.9927 42.8129 37.9241C42.8129 35.984 42.7961 34.0438 42.8212 32.102C42.8179 31.2289 42.9119 30.3678 42.9672 29.5066Z" fill="white"/>
<path d="M27.194 36.7114H27.0262C27.1554 35.5278 26.8282 34.3681 26.8584 33.1862C26.887 31.6184 26.8584 30.0471 26.8584 28.4775C27.0053 28.261 27.0654 27.9951 27.0262 27.7347C27.0162 27.6129 26.9776 27.4482 27.194 27.4482C27.194 27.9045 27.1034 28.3866 27.2125 28.8206C27.4608 29.7966 27.3299 30.7744 27.3568 31.7505C27.3836 32.7265 27.3568 33.6906 27.3568 34.6666C27.2995 34.7217 27.2538 34.7881 27.2226 34.8619C27.1914 34.9356 27.1753 35.0151 27.1753 35.0955C27.1753 35.1758 27.1914 35.2554 27.2226 35.3291C27.2538 35.4029 27.2995 35.4693 27.3568 35.5243C27.3389 35.6444 27.3445 35.7668 27.3733 35.8846C27.4021 36.0024 27.4535 36.1132 27.5246 36.2105H27.189L27.194 36.7114Z" fill="white"/>
<path d="M29.543 2.23169C29.543 2.31746 29.5766 2.45126 29.543 2.48042C29.2376 2.70171 29.1923 3.01391 29.1923 3.36042C29.1923 3.42046 29.0815 3.4805 28.9641 3.60058C28.6872 3.58857 28.2929 3.56627 28.0747 3.8476C27.8213 4.17867 27.3146 4.01913 27.1401 4.43598C26.7155 4.39995 26.7759 5.00377 26.3749 5.02607L26.348 5.6196L26.0947 5.68135L25.9487 6.00556H25.6886C25.6334 6.01905 25.576 6.02074 25.5201 6.01054C25.4642 6.00033 25.411 5.97844 25.3637 5.94624C25.3165 5.91404 25.2762 5.87222 25.2455 5.8234C25.2148 5.77457 25.1942 5.71979 25.1852 5.66248L25.6886 5.49094V4.88541C25.9134 4.62467 26.1786 4.48744 26.3598 4.22155C26.4977 4.00294 26.6817 3.81862 26.8983 3.68209C27.1149 3.54556 27.3586 3.46027 27.6116 3.43247C27.6954 3.29617 27.8186 3.18992 27.9641 3.12844C28.1097 3.06696 28.2703 3.05331 28.4238 3.08939L29.0446 2.23169L29.2963 2.37922L29.543 2.23169Z" fill="white"/>
<path d="M30.0466 35.1676H29.711C29.711 34.3425 29.711 33.5157 29.711 32.6906C29.711 31.8329 29.4828 30.9872 29.5231 30.1175C29.56 29.3404 29.8302 28.5839 29.7093 27.7966C29.6707 27.649 29.6305 27.5015 29.5952 27.3677L29.7093 26.9389L29.7714 26.6061C30.1154 27.3471 30.0433 28.1019 30.0449 28.8464C30.0483 30.9529 30.0489 33.06 30.0466 35.1676Z" fill="white"/>
<path d="M22.4954 22.6449C22.4434 22.3859 22.3914 22.1303 22.3276 21.8267H26.8583V24.8749H26.5227V22.1303C25.2558 22.156 24.0426 22.1011 22.831 22.1646V22.65L22.4954 22.6449Z" fill="white"/>
<path d="M22.4954 22.6449H22.831V24.103L23.1666 24.4461C23.1666 24.7789 23.1666 25.1151 23.1666 25.4513C23.1666 25.7875 23.2086 26.1066 23.1247 26.4188H22.6649C22.6095 26.3484 22.5072 26.2781 22.4971 26.2061C22.482 25.7326 22.4971 25.2574 22.4971 24.7891L22.1615 24.4461V23.3311L22.3293 23.2024L22.1615 22.988V22.6449H22.4954Z" fill="white"/>
<path d="M18.8037 17.1557C18.7349 17.8624 19.0286 18.4508 19.3692 19.0306C19.4582 19.185 19.4699 19.3874 19.5572 19.7168L19.9784 20.0599V20.4029H19.6428C19.5941 20.0359 19.1394 20.4029 19.0739 20.077C19.0085 19.7511 18.6578 19.7099 18.4631 19.444V18.7682L18.1275 18.4251C18.1133 18.2012 18.1133 17.9766 18.1275 17.7527C18.1696 17.5443 18.2257 17.3391 18.2953 17.1385L18.8037 17.1557Z" fill="white"/>
<path d="M40.1146 44.4306H39.8612C39.7488 43.765 39.7404 38.7269 39.8495 37.9275L40.1112 38.0836L40.1146 44.4306Z" fill="white"/>
<path d="M40.45 34.9958H40.1396C40.1065 34.557 40.0987 34.1165 40.1161 33.6767C40.1161 33.253 40.1161 32.819 40.1161 32.4039V31.0453C40.1161 30.6198 40.0876 30.1876 40.1245 29.7724C40.1614 29.3573 40.2654 28.9302 40.3527 28.4396C40.5205 28.7003 40.4148 28.9542 40.4517 29.1635L40.45 34.9958Z" fill="white"/>
<path d="M46.491 30.536C46.491 29.9665 46.491 29.3969 46.491 28.8206C46.4776 27.8977 46.7713 26.9971 46.6589 26.0759C46.7142 26.1497 46.8166 26.2217 46.8267 26.2955C46.8401 26.7792 46.8267 27.2613 46.8418 27.7433C46.8418 27.8188 46.9458 27.8908 47.0012 27.9629C47.0012 28.4466 47.1052 28.9629 46.976 29.4072C46.8082 30.0196 46.8669 30.6183 46.8334 31.2221C46.778 31.1827 46.6924 31.1552 46.6656 31.102C46.5951 30.9185 46.5464 30.7264 46.491 30.536Z" fill="white"/>
<path d="M46.4909 35.6823C46.3633 35.6566 46.1704 35.7681 46.1553 35.5108V31.2223H46.4909V35.6823Z" fill="white"/>
<path d="M46.9946 27.9626C46.9393 27.8906 46.8369 27.8185 46.8352 27.7431C46.8201 27.261 46.8352 26.779 46.8201 26.2953C46.8201 26.2215 46.7144 26.1494 46.6523 26.0757C46.5902 26.0019 46.4845 25.9041 46.4963 25.8664C46.5655 25.7008 46.648 25.5412 46.7429 25.3895H46.9879C46.9879 25.7206 46.9779 26.0517 46.9963 26.381C46.9963 26.4531 47.1004 26.5217 47.1557 26.5903C47.1826 26.5903 47.2329 26.5903 47.2346 26.5903C47.3672 27.0243 47.2866 27.4617 46.9946 27.9626Z" fill="white"/>
<path d="M26.5226 24.8746H26.8582V26.4185C26.8364 26.7616 26.9068 27.1149 26.8112 27.4477H26.5226V24.8746Z" fill="white"/>
<path d="M24.5091 42.7152H24.0056C24.0795 42.439 23.8613 42.3224 23.67 42.1114V41.3429H24.2859C24.3664 41.8335 24.4369 42.2744 24.5091 42.7152Z" fill="white"/>
<path d="M26.5226 27.4482H26.8112C26.9068 27.1154 26.8364 26.762 26.8582 26.4189H27.1468C27.2425 26.7517 27.172 27.1051 27.1938 27.4482C26.9807 27.4482 27.026 27.6197 27.026 27.7347C27.0651 27.9951 27.0051 28.2609 26.8582 28.4774H26.5226V27.4482Z" fill="white"/>
<path d="M46.4909 32.2513V31.222H46.1553V30.5359H46.4909C46.5463 30.7263 46.5949 30.9184 46.6587 31.102C46.6805 31.1551 46.7661 31.1826 46.8265 31.222V32.2513H46.4909Z" fill="white"/>
<path d="M47.3301 23.1597C47.2747 23.1151 47.1723 23.074 47.1706 23.0259C47.1539 22.748 47.1623 22.4684 47.1623 22.1305H47.6657C47.6606 22.513 47.7311 22.9161 47.3301 23.1597Z" fill="white"/>
<path d="M27.3617 35.5105C27.3044 35.4555 27.2587 35.3891 27.2275 35.3153C27.1963 35.2416 27.1802 35.162 27.1802 35.0817C27.1802 35.0013 27.1963 34.9218 27.2275 34.848C27.2587 34.7743 27.3044 34.7079 27.3617 34.6528C27.419 34.7079 27.4646 34.7743 27.4959 34.848C27.5271 34.9218 27.5432 35.0013 27.5432 35.0817C27.5432 35.162 27.5271 35.2416 27.4959 35.3153C27.4646 35.3891 27.419 35.4555 27.3617 35.5105Z" fill="white"/>
<path d="M29.7108 35.8536H30.0263C30.0263 36.1367 30.0397 36.4249 30.0464 36.7113H29.7326C29.7259 36.43 29.7175 36.1418 29.7108 35.8536Z" fill="white"/>
<path d="M46.8265 9.95126C46.8953 9.4761 46.9373 9.44522 47.4977 9.43665V9.72655L46.8265 9.95126Z" fill="white"/>
<path d="M29.711 26.9333L29.5969 27.3622C29.6321 27.496 29.6724 27.6435 29.711 27.7911H29.3972C29.3972 27.5097 29.3821 27.2215 29.3754 26.9333H29.711Z" fill="white"/>
<path d="M47.33 24.3605C47.2773 24.321 47.2344 24.2693 47.2049 24.2097C47.1753 24.1501 47.1599 24.0842 47.1599 24.0174C47.1599 23.9506 47.1753 23.8847 47.2049 23.8251C47.2344 23.7655 47.2773 23.7138 47.33 23.6743C47.3827 23.7138 47.4256 23.7655 47.4551 23.8251C47.4847 23.8847 47.5001 23.9506 47.5001 24.0174C47.5001 24.0842 47.4847 24.1501 47.4551 24.2097C47.4256 24.2693 47.3827 24.321 47.33 24.3605Z" fill="white"/>
<path d="M27.1938 36.7113V36.1967H27.5295V36.8828H27.1938V36.7113Z" fill="white"/>
<path d="M45.9878 41.3431H45.6975V40.657L45.9878 40.8285V41.3431Z" fill="white"/>
<path d="M22.1599 22.9879L22.3277 23.2023L22.1599 23.331V22.9879Z" fill="white"/>
<path d="M118.31 4.6335H114.451V4.30929C115.716 4.2664 116.985 4.30929 118.31 4.28699V4.6335Z" fill="white"/>
<path d="M114.451 7.89246H118.31V8.20981C117.104 8.26984 115.894 8.20981 114.681 8.2424L114.451 7.89246Z" fill="white"/>
<path d="M84.7498 7.89246H88.6092L88.3911 8.23554H84.9696C84.8957 8.11717 84.832 8.00567 84.7498 7.89246Z" fill="white"/>
<path d="M55.2167 7.89246H58.9083L58.6918 8.22353H55.2167V7.89246Z" fill="white"/>
<path d="M147.843 4.633H144.319V4.28992H147.843V4.633Z" fill="white"/>
<path d="M129.553 7.89246H133.077V8.23554H129.553V7.89246Z" fill="white"/>
<path d="M159.086 7.89246H162.778L162.56 8.23554H159.306C159.232 8.11717 159.168 8.00567 159.086 7.89246Z" fill="white"/>
<path d="M162.778 4.63326H159.254V4.31934C160.407 4.25416 161.565 4.31077 162.778 4.28503V4.63326Z" fill="white"/>
<path d="M73.6751 4.633H70.1512V4.28992H73.6751V4.633Z" fill="white"/>
<path d="M88.4414 4.633H84.9176V4.28992H88.4414V4.633Z" fill="white"/>
<path d="M133.077 4.633H129.553V4.28992H133.077V4.633Z" fill="white"/>
<path d="M70.1512 7.89246H73.6751L73.4586 8.22353H70.1512V7.89246Z" fill="white"/>
<path d="M144.319 7.89246H147.843L147.627 8.22353H144.319V7.89246Z" fill="white"/>
<path d="M99.6842 7.89246H103.208V8.2201C102.114 8.25612 101.017 8.2201 99.9107 8.23725L99.6842 7.89246Z" fill="white"/>
<path d="M103.208 4.63324H99.8519V4.30904C100.949 4.26958 102.05 4.30904 103.208 4.28845V4.63324Z" fill="white"/>
<path d="M54.8811 4.97632V7.54941H54.6278C54.5992 7.50481 54.5455 7.46021 54.5455 7.41561C54.5455 6.6231 54.5455 5.82887 54.5455 4.97632H54.8811Z" fill="white"/>
<path d="M23.1667 26.9334L22.6633 26.5903V26.4188H23.1231C23.207 26.1066 23.1567 25.7755 23.1651 25.4513C23.1734 25.1271 23.1651 24.7788 23.1651 24.4461L22.8295 24.103V22.1594C24.041 22.096 25.2542 22.1509 26.5211 22.1251V28.4721H26.8567C26.8567 30.0417 26.8785 31.613 26.8567 33.1809C26.8332 34.3628 27.1604 35.5224 27.0245 36.706C27.0245 37.1915 26.8869 37.7352 27.0597 38.1469C27.2779 38.6616 27.1386 39.1419 27.1822 39.6325C27.2259 40.1231 27.0849 40.6343 27.2141 41.0803C27.5111 42.1095 27.251 43.1507 27.3819 44.2452C26.5161 44.1886 25.6737 44.4407 24.8397 44.0325V42.7099H24.5041C24.432 42.269 24.3615 41.8282 24.2809 41.3376H23.6651C23.6651 40.7235 23.6651 40.1076 23.6651 39.4935C23.6651 39.4215 23.5594 39.3511 23.4973 39.2791L24.0007 38.7799V38.5929H24.5041C24.5041 38.3974 24.5041 38.2584 24.5041 38.1195C24.5679 36.9993 24.2071 35.9032 24.3363 34.7796C24.3363 34.7384 24.2809 34.6921 24.2625 34.663L24.0074 34.6063V29.9388L23.6718 29.5957C23.6718 29.1685 23.6718 28.7157 23.6718 28.2645C23.6892 27.8219 23.6814 27.3785 23.6483 26.9368L23.1667 26.9334Z" fill="white"/>
<path d="M38.2286 3.7603H37.4567V3.12904L38.1715 3.09302L38.4719 3.38807L38.2286 3.7603Z" fill="white"/>
<path d="M43.4705 29.3348H43.3027V28.8597L43.4219 28.8459C43.4387 29.0038 43.4538 29.1702 43.4705 29.3348Z" fill="white"/>
<path d="M42.9673 38.5983H43.1351L43.0227 38.7406L42.9673 38.5983Z" fill="white"/>
<path d="M45.9876 35.5103L45.8198 35.6818L45.9876 35.5103Z" fill="white"/>
<path d="M29.711 26.9335H29.5432C29.5432 26.7345 29.5566 26.5321 29.5432 26.3331C29.4408 24.9505 29.8536 23.5884 29.6841 22.1681H33.0401C33.0401 29.4585 33.0401 36.7432 33.0401 44.0222L32.8338 44.2315H30.8084L30.3872 44.0102V35.5808L30.0516 35.4658V35.1674C30.0516 33.0597 30.0516 30.9509 30.0516 28.841C30.0516 28.0965 30.1221 27.3417 29.7781 26.6007L29.711 26.9335Z" fill="white"/>
<path d="M27.1938 36.8826H27.3616V37.1982L27.2509 37.2085L27.1938 36.8826Z" fill="white"/>
<path d="M23.1666 26.9333H23.6448C23.6778 27.3751 23.6857 27.8184 23.6683 28.2611C23.6683 28.7122 23.6683 29.1651 23.6683 29.5922L24.0039 29.9353V34.608L24.259 34.6646C24.2774 34.6938 24.3361 34.7401 24.3328 34.7813C24.2086 35.9049 24.5694 37.001 24.5006 38.1212C24.5006 38.2601 24.5006 38.3991 24.5006 38.5946H23.9972C23.9703 37.9687 23.9754 37.3417 24.0123 36.7163C24.066 36.2016 23.7774 35.7505 23.8277 35.2496C23.5626 35.0678 23.6599 34.7899 23.6599 34.5497C23.6498 33.3249 23.6599 32.1001 23.6599 30.8753V30.1892H23.3243C23.4468 29.6248 23.1464 29.1068 23.1565 28.5527C23.1666 27.9986 23.1666 27.4754 23.1666 26.9333Z" fill="white"/>
<path d="M23.3345 30.1929H23.6701V30.879H23.3345V30.1929Z" fill="white"/>
</g>
<defs>
<clipPath id="clip0_11_3292">
<rect width="170" height="45" fill="white"/>
</clipPath>
</defs>
</svg>
